<?xml version="1.0" encoding="UTF-8"?> <!-- Generator: Adobe Illustrator 23.0.6, SVG Export Plug-In . SVG Version: 6.00 Build 0) --> <svg xmlns="http://www.w3.org/2000/svg" xmlns:xlink="http://www.w3.org/1999/xlink" x="0px" y="0px" viewBox="0 0 457 110" style="enable-background:new 0 0 457 110;" xml:space="preserve"> <style type="text/css"> .st0{fill:#234564;} </style> <g id="Ebene_1"> </g> <g id="Ebene_1_Winter_Stufe_1_Kopie"> <g> <g> <path class="st0" d="M23.73,109.13L0.89,24.51L87.52,1.13l22.84,84.61L23.73,109.13z M3.17,25.82l21.87,81.03l83.04-22.42 L86.21,3.41L3.17,25.82z"></path> <g> <polygon class="st0" points="83.01,12.08 70.65,70.32 98.73,70.32 "></polygon> <polygon class="st0" points="44.35,86.57 59.37,16.04 9.68,29.45 28.85,100.44 80.2,86.57 "></polygon> </g> </g> <g> <path d="M160.55,89.17c-0.82-0.35-1.73-0.56-2.64-0.56c-0.89,0-2.04,0.39-2.04,1.8c0,2.25,5.69,1.3,5.69,5.65 c0,2.84-2.25,3.92-4.87,3.92c-1.41,0-2.04-0.19-3.32-0.5l0.24-2.34c0.89,0.48,1.91,0.8,2.94,0.8c0.98,0,2.3-0.5,2.3-1.67 c0-2.47-5.69-1.45-5.69-5.74c0-2.9,2.25-3.96,4.53-3.96c1.12,0,2.16,0.15,3.1,0.46L160.55,89.17z"></path> <path d="M164.18,92.01h-1.84v-1.82h1.84v-1.91l2.49-0.8v2.71h2.21v1.82h-2.21v4.46c0,0.82,0.22,1.58,1.17,1.58 c0.45,0,0.87-0.09,1.13-0.26l0.07,1.97c-0.52,0.15-1.1,0.22-1.84,0.22c-1.95,0-3.03-1.21-3.03-3.1V92.01z"></path> <path d="M170.78,90.19h2.21v2.17h0.04c0.11-0.89,1.13-2.4,2.62-2.4c0.24,0,0.5,0,0.76,0.07v2.51c-0.22-0.13-0.67-0.21-1.12-0.21 c-2.02,0-2.02,2.53-2.02,3.9v3.51h-2.49V90.19z"></path> <path d="M185.79,99.22c-0.91,0.5-1.95,0.76-3.29,0.76c-3.16,0-5-1.82-5-4.96c0-2.77,1.47-5.05,4.44-5.05 c3.55,0,4.55,2.43,4.55,5.78h-6.61c0.11,1.54,1.19,2.42,2.73,2.42c1.21,0,2.25-0.45,3.18-0.97V99.22z M184.12,94.03 c-0.07-1.21-0.63-2.25-2.03-2.25c-1.39,0-2.1,0.97-2.21,2.25H184.12z"></path> <path d="M197.35,99.76h-2.36v-1.3h-0.04c-0.76,0.93-1.84,1.52-3.14,1.52c-2.27,0-3.25-1.6-3.25-3.75v-6.04h2.49v5.11 c0,1.17,0.02,2.75,1.62,2.75c1.8,0,2.19-1.95,2.19-3.18v-4.68h2.49V99.76z"></path> <path d="M207.76,99.22c-0.91,0.5-1.95,0.76-3.29,0.76c-3.16,0-5-1.82-5-4.96c0-2.77,1.47-5.05,4.44-5.05 c3.55,0,4.55,2.43,4.55,5.78h-6.61c0.11,1.54,1.19,2.42,2.73,2.42c1.21,0,2.25-0.45,3.18-0.97V99.22z M206.09,94.03 c-0.07-1.21-0.63-2.25-2.03-2.25s-2.1,0.97-2.21,2.25H206.09z"></path> <path d="M210.56,90.19h2.36v1.3h0.04c0.78-1.1,1.84-1.52,3.14-1.52c2.27,0,3.25,1.6,3.25,3.75v6.04h-2.49v-5.11 c0-1.17-0.02-2.75-1.62-2.75c-1.8,0-2.19,1.95-2.19,3.18v4.68h-2.49V90.19z"></path> <path d="M233.9,95.54c0.63-0.72,0.78-1.82,0.82-2.82h2.27c-0.07,1.65-0.61,3.19-1.65,4.44l2.32,2.6h-3.2l-0.87-1.15 c-0.91,0.93-2.25,1.37-3.53,1.37c-2.56,0-4.63-1.34-4.63-3.77c0-1.56,0.67-2.69,2.73-3.57c-1-0.95-1.8-1.64-1.8-3.12 c0-1.97,2.12-2.95,3.94-2.95c1.82,0,3.73,0.84,3.73,2.94c0,1.78-1.1,2.62-2.51,3.44L233.9,95.54z M229.5,94.05 c-0.86,0.45-1.58,1.06-1.58,2.08c0,1.13,0.98,1.91,2.19,1.91c0.87,0,1.69-0.22,2.27-0.78L229.5,94.05z M231.77,89.72 c0-0.91-0.69-1.34-1.43-1.34c-0.74,0-1.49,0.43-1.49,1.37c0,0.72,0.72,1.34,1.23,1.84C230.73,91.26,231.77,90.48,231.77,89.72z"></path> <path d="M243.29,86.79h3.55c3.98,0,7.49,1.34,7.49,6.48s-3.51,6.48-7.49,6.48h-3.55V86.79z M245.89,97.71h1.45 c2.17,0,4.27-1.62,4.27-4.44c0-2.82-2.1-4.44-4.27-4.44h-1.45V97.71z"></path> <path d="M261.07,89.96c2.84,0,5.02,1.91,5.02,5.07c0,2.75-1.84,4.94-5.02,4.94c-3.16,0-5-2.19-5-4.94 C256.08,91.88,258.25,89.96,261.07,89.96z M261.07,98.05c1.91,0,2.42-1.71,2.42-3.31c0-1.47-0.78-2.84-2.42-2.84 c-1.62,0-2.4,1.41-2.4,2.84C258.68,96.32,259.18,98.05,261.07,98.05z"></path> <path d="M273.89,92.19c-0.76-0.26-1.32-0.41-2.23-0.41c-0.67,0-1.47,0.24-1.47,1.06c0,1.52,4.33,0.56,4.33,4.01 c0,2.23-1.99,3.12-4.01,3.12c-0.95,0-1.91-0.17-2.82-0.41l0.15-2.04c0.78,0.39,1.6,0.63,2.45,0.63c0.63,0,1.63-0.24,1.63-1.17 c0-1.88-4.33-0.6-4.33-4.05c0-2.06,1.8-2.97,3.75-2.97c1.17,0,1.93,0.19,2.71,0.35L273.89,92.19z"></path> <path d="M276.61,86.06h2.49v2.38h-2.49V86.06z M276.61,90.19h2.49v9.57h-2.49V90.19z"></path> <path d="M289.51,99.22c-0.91,0.5-1.95,0.76-3.29,0.76c-3.16,0-5-1.82-5-4.96c0-2.77,1.47-5.05,4.44-5.05 c3.55,0,4.55,2.43,4.55,5.78h-6.61c0.11,1.54,1.19,2.42,2.73,2.42c1.21,0,2.25-0.45,3.18-0.97V99.22z M287.84,94.03 c-0.07-1.21-0.63-2.25-2.03-2.25c-1.39,0-2.1,0.97-2.21,2.25H287.84z"></path> <path d="M292.34,90.19h2.21v2.17h0.04c0.11-0.89,1.13-2.4,2.62-2.4c0.24,0,0.5,0,0.76,0.07v2.51c-0.22-0.13-0.67-0.21-1.12-0.21 c-2.02,0-2.02,2.53-2.02,3.9v3.51h-2.49V90.19z"></path> <path d="M307.35,99.22c-0.91,0.5-1.95,0.76-3.29,0.76c-3.16,0-5-1.82-5-4.96c0-2.77,1.47-5.05,4.44-5.05 c3.55,0,4.55,2.43,4.55,5.78h-6.61c0.11,1.54,1.19,2.42,2.73,2.42c1.21,0,2.25-0.45,3.18-0.97V99.22z M305.68,94.03 c-0.07-1.21-0.63-2.25-2.03-2.25s-2.1,0.97-2.21,2.25H305.68z"></path> <path d="M310.15,90.19h2.36v1.3h0.04c0.78-1.1,1.84-1.52,3.14-1.52c2.27,0,3.25,1.6,3.25,3.75v6.04h-2.49v-5.11 c0-1.17-0.02-2.75-1.62-2.75c-1.8,0-2.19,1.95-2.19,3.18v4.68h-2.49V90.19z"></path> <path d="M327.01,90.19h2.32v1.34h0.04c0.78-1.17,1.91-1.56,2.84-1.56c1.34,0,2.28,0.5,2.82,1.69c0.58-1.15,1.82-1.69,2.99-1.69 c2.36,0,3.03,1.62,3.03,3.75v6.04h-2.49v-5.7c0-0.89,0-2.15-1.43-2.15c-1.65,0-1.86,1.97-1.86,3.21v4.64h-2.49v-5.7 c0-0.89,0-2.15-1.43-2.15c-1.65,0-1.86,1.97-1.86,3.21v4.64h-2.49V90.19z"></path> <path d="M343.7,86.06h2.49v2.38h-2.49V86.06z M343.7,90.19h2.49v9.57h-2.49V90.19z"></path> <path d="M349.63,92.01h-1.84v-1.82h1.84v-1.91l2.49-0.8v2.71h2.21v1.82h-2.21v4.46c0,0.82,0.22,1.58,1.17,1.58 c0.45,0,0.87-0.09,1.13-0.26l0.07,1.97c-0.52,0.15-1.1,0.22-1.84,0.22c-1.95,0-3.03-1.21-3.03-3.1V92.01z"></path> <path d="M365.56,86.79h2.3v12.97h-2.6V89.74l-2.19,1.78l-1.3-1.69L365.56,86.79z"></path> <path d="M370.81,99.76v-2.17c1.21-1.17,5.61-4.85,5.61-7.23c0-1.19-1.06-1.75-2.12-1.75c-1.1,0-2.14,0.48-2.99,1.04l-0.2-2.16 c1.17-0.6,2.53-0.93,3.85-0.93c2.47,0,4.07,1.25,4.07,3.79c0,2.75-2.77,5.28-4.89,7.36h5.29v2.04H370.81z"></path> <path d="M384.79,86.79h2.79l3.33,10.18h0.04l3.29-10.18h2.58l-4.37,12.97h-3.2L384.79,86.79z"></path> <path d="M402.02,89.96c2.84,0,5.02,1.91,5.02,5.07c0,2.75-1.84,4.94-5.02,4.94c-3.16,0-5-2.19-5-4.94 C397.02,91.88,399.19,89.96,402.02,89.96z M402.02,98.05c1.91,0,2.42-1.71,2.42-3.31c0-1.47-0.78-2.84-2.42-2.84 c-1.62,0-2.4,1.41-2.4,2.84C399.62,96.32,400.12,98.05,402.02,98.05z"></path> <path d="M409.16,85.82h2.49v13.93h-2.49V85.82z"></path> <path d="M415.08,92.01h-1.84v-1.82h1.84v-1.91l2.49-0.8v2.71h2.21v1.82h-2.21v4.46c0,0.82,0.22,1.58,1.17,1.58 c0.45,0,0.87-0.09,1.13-0.26l0.07,1.97c-0.52,0.15-1.1,0.22-1.84,0.22c-1.95,0-3.03-1.21-3.03-3.1V92.01z"></path> </g> <path d="M133.65,19.14h14.54v43.76h22.51v10.79h-37.04V19.14z"></path> <path d="M176.72,19.14h38.45v10.32h-23.91v11.25h22.59v10.32h-22.59v12.35h24.77v10.32h-39.31V19.14z"></path> <path d="M281.52,19.14h18.52l18.44,37.04h0.16l-0.23-37.04h13.29v54.55h-18.05l-19.07-37.28h-0.16l0.47,37.28h-13.36V19.14z"></path> <path d="M341.7,19.14h38.45v10.32h-23.91v11.25h22.59v10.32h-22.59v12.35h24.77v10.32H341.7V19.14z"></path> <path d="M389.45,19.14h25.95c9.69,0,17.58,4.38,17.58,13.75c0,7.27-3.44,12.11-10.47,13.75v0.16c4.69,1.25,5,5.39,7.74,12.03 l5.31,14.85H420.4l-3.13-9.85c-2.97-9.38-4.85-11.72-10.24-11.72h-3.05v21.57h-14.54V19.14z M403.99,41.81h3.83 c4.69,0,10.63-0.16,10.63-6.33c0-5.08-5.08-6.02-10.63-6.02h-3.83V41.81z"></path> <g> <polygon points="256.59,19.14 256.59,40.01 241.48,40.01 241.48,50.33 256.59,50.33 256.59,73.69 271.12,73.69 271.12,19.14 "></polygon> <rect x="224.86" y="19.14" width="14.47" height="54.55"></rect> </g> <g> <path d="M446.41,19.43c5.17,0,9.34,4.17,9.34,9.34c0,5.17-4.17,9.34-9.34,9.34c-5.17,0-9.34-4.17-9.34-9.34 C437.06,23.6,441.24,19.43,446.41,19.43z M446.41,36.44c4.28,0,7.56-3.28,7.56-7.66c0-4.38-3.28-7.66-7.56-7.66 c-4.28,0-7.56,3.28-7.56,7.66C438.85,33.15,442.13,36.44,446.41,36.44z M442.84,23.29h4.2c2.49,0,3.75,1,3.75,3.07 c0,1.76-1.13,3.02-2.83,3.02l3.12,4.85h-1.89l-3.02-4.85h-1.55v4.85h-1.79V23.29z M444.62,27.98h2.13c1.37,0,2.26-0.29,2.26-1.71 c0-1.23-0.89-1.6-2.26-1.6h-2.13V27.98z"></path> </g> </g> </g> </svg> 